<?xml version="1.0" encoding="UTF-8"?>
<svg id="Layer_2" data-name="Layer 2" xmlns="http://www.w3.org/2000/svg" viewBox="0 0 420.62 293.12">
  <defs>
    <style>
      .cls-1 {
        fill: #282724;
      }

      .cls-1, .cls-2, .cls-3 {
        stroke: #231f20;
        stroke-miterlimit: 10;
      }

      .cls-2 {
        fill: #d3d2cd;
      }

      .cls-3 {
        fill: #f3be3b;
      }
    </style>
  </defs>
  <g id="Layer_1-2" data-name="Layer 1">
    <path class="cls-1" d="M242.76,32.98c7.36,8.55,11.95,17.52,13.33,28.78.16,1.27-.53,5.75.82,6.01,19.84-7.64,40.33-14.92,61.4-18.69,30.21-5.41,83-4.98,98.07,27.4,13.38,28.74-11.49,59.2-37.49,70.29.39,10.39-2.53,19.04-9.33,26.93-18.99,22.05-55.15,21.85-79.83,9.89-1.64-.79-11.7-7.09-12.31-6.47-.35,5.01.59,9.94.56,14.93-.19,26.24-8.6,57.81-25.61,78.44-19.34,23.45-47.85,30.26-73.23,10.73-1.64-1.26-7.07-6.84-8.33-7.78l-.95-.95s-5.7-7.58-6.54-8.7l-6.68-11.22c-1.76-3.82-2.96-7.66-4.96-11.62l-5.15-13.41c-2.27-8.33-2.86-17.35-3.36-26.1-.46-7.97.33-16.31,0-24.32-.5-.51-10.96,5.96-12.59,6.72-16.22,7.65-34.53,10.16-52.09,5.79-20.65-5.13-37.78-20.68-36.79-42.87-15.87-7.83-30.79-19.84-37.44-36.47-15.23-38.06,18.88-59.89,52.89-63.44,36.59-3.81,73.71,8.42,107.34,20.92-.5-11.61,3.57-22.07,10.67-31.11,2.25-2.86,4.15-2.33,1.03-6.28-5.7-7.22-16.03-13.05-24.67-16l.69.24c-2.98-1.11-6.89-3.87-6.33-7.04.28-1.56-.47-4.09,4.64-5.88,2.36-.83,6.64-.04,7.84.48l-.45-.11c14.39,3.51,24.6,10.23,33.57,21.69,4.47-.55,8.69-2.21,13.23-2.54,6.07-.44,12.53.05,18.48,1.2,2.01.39,4.72,2.29,6.59.93,7.66-10.31,18.45-18.04,30.87-21.7,4.14-1.22,8.49-1.81,11.98.09,2.77,1.5,4.82,5.03,3.41,8.25-1.89,4.32-7.71,4.17-13.63,6.78-7.42,3.28-15.17,9.43-19.63,16.23Z"/>
    <path class="cls-2" d="M172.97,99.71c1.43,1.93-8.04,13.02-9.59,15.4-1.91,2.93-4.01,6.58-5.59,9.68-6.01,11.75-6.32,20.69-16.76,30.1-13.61,12.27-30.98,19.99-49.81,18.56-16.24-1.23-38.51-13.49-28.61-32.27,15.83-30.01,72.46-39.42,103.21-41.47,1.18-.08,6.69-.63,7.15,0Z"/>
    <path class="cls-2" d="M248.45,99.2c28.78,2.41,60.9,5.9,86.33,20.28,15.52,8.78,37.58,28.96,17.76,45.35-22.75,18.82-64.27,4.62-79.83-17.36-2.7-3.82-4.72-11.94-6.93-16.74-3.09-6.72-7.03-13.23-11.16-19.38-2-2.98-6.82-7.57-6.95-10.99-.02-.64.22-.9.78-1.15Z"/>
    <path class="cls-2" d="M150.08,81.9c.14,1.4,0,.84-.8,1.03-4.84,1.15-10.82,1.35-15.83,2.26-31.72,5.71-66.5,16.84-85.37,44.2-22.17-9.19-44.34-40.34-15.56-56.48,24.71-13.86,60.44-8.29,86.66-1.22,10.48,2.83,20.67,6.65,30.9,10.21Z"/>
    <path class="cls-2" d="M270.48,82.94c-.22-1.2.07-.83.68-1.17,4.22-2.29,14.17-5.27,19.14-6.83,28.53-8.94,69.93-17.36,97.39-2.21,29.06,16.03,7.33,47.53-15.14,56.73-22.44-32.2-64.85-41.82-102.08-46.52Z"/>
    <path class="cls-3" d="M186.5,233.03c-6.48-.89-17.93-3.77-22.28-8.06-2.53-3.94-3.21-9.9-4.04-14.37-.8-5.13-1.14-10.32-1.06-15.52.03-.59.49-14.85,1.18-14.74,1.07.19,18.55,7.96,20.88,8.73,18.49,6.1,50.63,5.8,80.27-7.73,1-.46-.17,15.27,0,16.31-.06,4.42-.4,8.8-1.06,13.16-2.04,13.79-2.46,16.02-16.03,20.24-12.4,3.72-36.27,4.67-49.01,3.03l-8.85-1.06Z"/>
    <path class="cls-3" d="M200.58,116.05c9.76-.77,20.97-.17,30.59,1.57,4.65.84,8.87,1.18,12.13,4.83,2.62,2.93,17.89,27.23,12.31,29.62-19.87,8.53-73.65,7.85-90.85,0-2.62-1.19,5.29-18.44,6.75-20.62.88-1.31,4.78-8.4,8.71-11.38,5.22-3.96,15.45-3.63,20.36-4.02Z"/>
    <path class="cls-3" d="M206.74,274.04c8.8.51,17.92-.65,25.3-5.48,5.32-3.47,8.39-9.07,10.71-12.44.87-1.26,3.47-5.97,2.03-6.51s-7.08,1.14-10.64,2c-12.12,2.94-26.02,3.25-38.51,1.5-4.53-.16-13.19-2.59-18.27-4.11-.91-.27-4.58-1.9-5.08-1.32s.69,3.72,1.22,4.78c5.49,11.08,21.78,21.09,33.02,21.56h.22Z"/>
  </g>
</svg>